<svg xmlns="http://www.w3.org/2000/svg" version="1.1" xmlns:xlink="http://www.w3.org/1999/xlink" xmlns:svgjs="http://svgjs.dev/svgjs" width="307" height="342"><svg width="307" height="342" viewBox="0 0 307 342" fill="none" xmlns="http://www.w3.org/2000/svg">
<rect x="7.5" y="7.5" width="292" height="327" rx="42.5" stroke="#013148" stroke-width="15"></rect>
<path d="M171.224 273.651C180.027 282.111 193.493 286.401 211.239 286.401C211.425 286.401 211.622 286.401 211.82 286.401C248.625 286.211 267.173 268.391 266.941 233.451C266.754 205.701 255.823 188.521 221.96 162.741C190.9 139.251 180.364 124.301 180.225 103.511C180.039 75.2208 200.273 70.8808 212.355 70.8208C212.448 70.8208 212.529 70.8208 212.622 70.8208C224.74 70.8208 244.741 75.1808 244.939 103.871L244.962 107.741L265.417 107.631V106.771C265.289 89.4508 260.742 76.3209 251.881 67.7208C243.09 59.1909 229.624 54.9308 211.657 55.0008C175.166 55.1908 156.781 72.5608 157.002 106.631C157.176 132.291 168.689 149.631 202.633 175.351C233.961 198.941 244.067 213.951 244.229 237.101C244.427 266.351 223.565 270.821 211.111 270.891C211.018 270.891 207.773 270.891 207.68 270.891C196.04 270.891 176.841 266.541 176.655 237.921L176.608 230.401L157.537 230.511L157.572 234.701C157.688 251.951 162.281 265.051 171.212 273.641L171.224 273.651Z" fill="#FF9000"></path>
<path d="M153.5 133.982C153.5 123.67 148.249 115.039 139.006 109.246C143.842 104.043 146.575 97.532 146.575 90.4181C146.575 80.6742 141.248 58 91.8544 58H42.9371V171H94.6641C130.961 171 153.5 156.819 153.5 133.994V133.982ZM112.981 133.774C112.981 136.902 112.981 142.741 91.9772 142.741H82.9184V126.266H91.9772C112.981 126.266 112.981 131.341 112.981 133.785V133.774ZM88.8757 98.0071H82.9338V86.2355H89.4592C106.425 86.2355 106.425 89.0741 106.425 91.8201C106.425 93.9751 106.425 98.0071 88.8757 98.0071Z" fill="#FF9000"></path>
<path d="M42.9371 211.377H77.3414V290H119.096V211.377H153.5V188H42.9371V211.377Z" fill="#FF9000"></path>
</svg><style>@media (prefers-color-scheme: light) { :root { filter: none; } }
@media (prefers-color-scheme: dark) { :root { filter: none; } }
</style></svg>